# Exported from ProBuilder
# http://www.procore3d.com/probuilder
# 10/5/2018 7:51:50 AM

mtllib ./a.mtl
o a

g New Game Object
v 18.72082 -3.814697E-06 -11.10806
v 18.6624 2.56823E-14 -6.726588
v 18.54556 -1.182935E-13 -3.805611
v 18.13662 1.038231E-13 -1.059892
v 16.85139 -4.829002E-14 1.627407
v 14.33935 -2.206525E-13 2.44528
v 10.24998 3.814697E-06 2.912636
v 6.686388 3.814697E-06 2.912635
v 3.005956 7.629394E-06 2.38686
v 0.9028508 7.629394E-06 1.276889
v -0.3239586 7.629394E-06 -0.7093766
v -0.4992204 7.629394E-06 -3.571934
v -0.769495 7.629394E-06 -6.640088
v -0.8887241 7.629393E-06 -8.428492
v -1.048162 7.629394E-06 -10.82007
v -0.4898337 3.918215E-06 -10.76861
v -0.4978346 3.860995E-06 -9.747781
v -0.392325 3.941299E-06 -8.113171
v -0.1571195 5.750725E-06 -6.11782
v -0.0110822 5.845335E-06 -3.570776
v 0.2838485 5.813404E-06 -0.7684312
v 1.552503 5.722045E-06 1.01639
v 3.326149 3.814697E-06 1.782779
v 6.72016 3.847347E-06 2.436523
v 10.30168 1.997945E-06 2.435367
v 14.04172 3.377938E-08 1.911974
v 16.12198 -1.931552E-06 1.231494
v 17.13939 -1.684185E-06 -0.3149131
v 18.21089 -2.186141E-06 -3.916242
v 18.18696 -4.059313E-06 -6.604941
v 18.11634 -3.987895E-06 -11.09503
v 18.6624 1 -6.726588
v 18.72082 0.9999962 -11.10806
v 18.11634 0.999996 -11.09503
v 18.18696 0.9999959 -6.604941
v 18.21089 0.9999979 -3.916242
v 18.54556 1 -3.805611
v 18.13662 1 -1.059893
v 17.13939 0.9999983 -0.3149132
v 16.85139 1 1.627407
v 16.12198 0.9999981 1.231494
v 14.33935 1 2.44528
v 14.04172 1 1.911974
v 10.24998 1.000004 2.912636
v 10.30168 1.000002 2.435367
v 6.72016 1.000004 2.436523
v 6.686388 1.000004 2.912635
v 3.326149 1.000004 1.782779
v 3.005956 1.000008 2.38686
v 1.552504 1.000006 1.01639
v 0.9028513 1.000008 1.276889
v 0.283849 1.000006 -0.7684314
v -0.3239582 1.000008 -0.7093768
v -0.01108177 1.000006 -3.570776
v -0.49922 1.000008 -3.571934
v -0.157119 1.000006 -6.11782
v -0.7694945 1.000008 -6.640088
v -0.3923246 1.000004 -8.113171
v -0.8887237 1.000008 -8.428492
v -0.4978341 1.000004 -9.747781
v -1.048162 1.000008 -10.82007
v -0.4898332 1.000004 -10.76861
v -1.048162 7.629394E-06 -10.82007
v -0.4898337 3.918215E-06 -10.76861
v -1.048162 1.000008 -10.82007
v -0.4898332 1.000004 -10.76861
v -0.4898337 3.918215E-06 -10.76861
v -0.4978346 3.860995E-06 -9.747781
v -0.4898332 1.000004 -10.76861
v -0.4978341 1.000004 -9.747781
v -0.8887241 7.629393E-06 -8.428492
v -1.048162 7.629394E-06 -10.82007
v -0.8887237 1.000008 -8.428492
v -1.048162 1.000008 -10.82007
v -0.4978346 3.860995E-06 -9.747781
v -0.392325 3.941299E-06 -8.113171
v -0.4978341 1.000004 -9.747781
v -0.3923246 1.000004 -8.113171
v -0.769495 7.629394E-06 -6.640088
v -0.8887241 7.629393E-06 -8.428492
v -0.7694945 1.000008 -6.640088
v -0.8887237 1.000008 -8.428492
v -0.392325 3.941299E-06 -8.113171
v -0.1571195 5.750725E-06 -6.11782
v -0.3923246 1.000004 -8.113171
v -0.157119 1.000006 -6.11782
v -0.4992204 7.629394E-06 -3.571934
v -0.769495 7.629394E-06 -6.640088
v -0.49922 1.000008 -3.571934
v -0.7694945 1.000008 -6.640088
v -0.1571195 5.750725E-06 -6.11782
v -0.0110822 5.845335E-06 -3.570776
v -0.157119 1.000006 -6.11782
v -0.01108177 1.000006 -3.570776
v -0.3239586 7.629394E-06 -0.7093766
v -0.4992204 7.629394E-06 -3.571934
v -0.3239582 1.000008 -0.7093768
v -0.49922 1.000008 -3.571934
v -0.0110822 5.845335E-06 -3.570776
v 0.2838485 5.813404E-06 -0.7684312
v -0.01108177 1.000006 -3.570776
v 0.283849 1.000006 -0.7684314
v 0.9028508 7.629394E-06 1.276889
v -0.3239586 7.629394E-06 -0.7093766
v 0.9028513 1.000008 1.276889
v -0.3239582 1.000008 -0.7093768
v 0.2838485 5.813404E-06 -0.7684312
v 1.552503 5.722045E-06 1.01639
v 0.283849 1.000006 -0.7684314
v 1.552504 1.000006 1.01639
v 3.005956 7.629394E-06 2.38686
v 0.9028508 7.629394E-06 1.276889
v 3.005956 1.000008 2.38686
v 0.9028513 1.000008 1.276889
v 1.552503 5.722045E-06 1.01639
v 3.326149 3.814697E-06 1.782779
v 1.552504 1.000006 1.01639
v 3.326149 1.000004 1.782779
v 6.686388 3.814697E-06 2.912635
v 3.005956 7.629394E-06 2.38686
v 6.686388 1.000004 2.912635
v 3.005956 1.000008 2.38686
v 3.326149 3.814697E-06 1.782779
v 6.72016 3.847347E-06 2.436523
v 3.326149 1.000004 1.782779
v 6.72016 1.000004 2.436523
v 10.24998 3.814697E-06 2.912636
v 6.686388 3.814697E-06 2.912635
v 10.24998 1.000004 2.912636
v 6.686388 1.000004 2.912635
v 6.72016 3.847347E-06 2.436523
v 10.30168 1.997945E-06 2.435367
v 6.72016 1.000004 2.436523
v 10.30168 1.000002 2.435367
v 10.30168 1.997945E-06 2.435367
v 14.04172 3.377938E-08 1.911974
v 10.30168 1.000002 2.435367
v 14.04172 1 1.911974
v 14.33935 -2.206525E-13 2.44528
v 10.24998 3.814697E-06 2.912636
v 14.33935 1 2.44528
v 10.24998 1.000004 2.912636
v 14.04172 3.377938E-08 1.911974
v 16.12198 -1.931552E-06 1.231494
v 14.04172 1 1.911974
v 16.12198 0.9999981 1.231494
v 16.85139 -4.829002E-14 1.627407
v 14.33935 -2.206525E-13 2.44528
v 16.85139 1 1.627407
v 14.33935 1 2.44528
v 16.12198 -1.931552E-06 1.231494
v 17.13939 -1.684185E-06 -0.3149131
v 16.12198 0.9999981 1.231494
v 17.13939 0.9999983 -0.3149132
v 18.13662 1.038231E-13 -1.059892
v 16.85139 -4.829002E-14 1.627407
v 18.13662 1 -1.059893
v 16.85139 1 1.627407
v 17.13939 -1.684185E-06 -0.3149131
v 18.21089 -2.186141E-06 -3.916242
v 17.13939 0.9999983 -0.3149132
v 18.21089 0.9999979 -3.916242
v 18.54556 -1.182935E-13 -3.805611
v 18.13662 1.038231E-13 -1.059892
v 18.54556 1 -3.805611
v 18.13662 1 -1.059893
v 18.6624 2.56823E-14 -6.726588
v 18.54556 -1.182935E-13 -3.805611
v 18.6624 1 -6.726588
v 18.54556 1 -3.805611
v 18.21089 -2.186141E-06 -3.916242
v 18.18696 -4.059313E-06 -6.604941
v 18.21089 0.9999979 -3.916242
v 18.18696 0.9999959 -6.604941
v 18.18696 -4.059313E-06 -6.604941
v 18.11634 -3.987895E-06 -11.09503
v 18.18696 0.9999959 -6.604941
v 18.11634 0.999996 -11.09503
v 18.11634 -3.987895E-06 -11.09503
v 18.72082 -3.814697E-06 -11.10806
v 18.11634 0.999996 -11.09503
v 18.72082 0.9999962 -11.10806
v 18.72082 -3.814697E-06 -11.10806
v 18.6624 2.56823E-14 -6.726588
v 18.72082 0.9999962 -11.10806
v 18.6624 1 -6.726588

vn 3.053807E-07 -1 8.747156E-07
vn 5.175636E-06 -1 4.310281E-07
vn 6.337822E-06 -1 5.880453E-07
vn 3.096496E-06 -1 9.788462E-07
vn 1.897204E-06 -1 1.816877E-06
vn -2.951408E-07 -1 1.218452E-06
vn -3.898119E-07 -1 1.868706E-06
vn -7.462348E-07 -1 2.199014E-06
vn -2.110117E-06 -1 4.617842E-06
vn -2.266149E-06 -1 2.129328E-06
vn -3.139239E-06 -1 6.951014E-07
vn -3.521086E-06 -1 2.574609E-07
vn -4.625372E-06 -0.9999999 6.773662E-07
vn -7.810386E-06 -1 5.298521E-07
vn -7.459937E-06 -1 3.142914E-07
vn -6.636982E-06 -1 -1.080711E-07
vn -7.559777E-06 -1 3.882481E-07
vn -6.35897E-06 -1 8.868006E-07
vn -3.677002E-06 -1 5.795225E-07
vn -3.380462E-06 -1 2.603971E-07
vn -2.700426E-06 -1 1.136749E-06
vn -2.360515E-06 -1 3.073524E-06
vn -1.561577E-06 -0.9999999 3.528277E-06
vn -1.672637E-07 -0.9999999 1.226229E-06
vn -2.500899E-07 -1 3.779474E-06
vn -5.766101E-07 -1 1.522314E-06
vn 8.104851E-07 -1 1.612951E-06
vn 2.323759E-06 -1 1.034437E-06
vn 4.970929E-06 -1 7.046017E-07
vn 8.57339E-06 -1 1.380707E-07
vn 3.971256E-06 -0.9999999 4.164827E-07
vn -5.205834E-06 1 -4.324212E-07
vn -2.669994E-07 1 -8.853949E-07
vn -4.00791E-06 0.9999999 -4.177826E-07
vn -8.705731E-06 1 -1.394862E-07
vn -4.961877E-06 1 -7.041297E-07
vn -6.19515E-06 1 -5.737305E-07
vn -3.080735E-06 1 -9.716293E-07
vn -2.322696E-06 1 -1.022194E-06
vn -1.880277E-06 1 -1.779946E-06
vn -7.94894E-07 1 -1.573886E-06
vn 2.999367E-07 1 -1.18883E-06
vn 5.750385E-07 1 -1.52372E-06
vn 3.933248E-07 1 -1.884379E-06
vn 2.510286E-07 1 -3.810641E-06
vn 1.697339E-07 0.9999999 -1.248414E-06
vn 7.445948E-07 1 -2.213231E-06
vn 1.558402E-06 0.9999999 -3.539605E-06
vn 2.115366E-06 1 -4.634479E-06
vn 2.386358E-06 1 -3.090893E-06
vn 2.267755E-06 1 -2.134924E-06
vn 2.661296E-06 1 -1.137421E-06
vn 3.148382E-06 1 -6.895788E-07
vn 3.470293E-06 1 -2.573825E-07
vn 3.627624E-06 1 -2.510363E-07
vn 3.711995E-06 1 -5.801834E-07
vn 4.593473E-06 1 -6.8692E-07
vn 6.340128E-06 1 -8.985407E-07
vn 7.837987E-06 1 -5.344419E-07
vn 7.610975E-06 1 -3.90148E-07
vn 7.535376E-06 1 -3.088567E-07
vn 6.711209E-06 1 1.141277E-07
vn 0.0917794 -2.081389E-07 -0.9957794
vn 0.09177939 -2.081389E-07 -0.9957794
vn 0.0917794 -2.081389E-07 -0.9957794
vn 0.0917794 -2.081389E-07 -0.9957794
vn 0.9999693 -4.373578E-07 0.007837373
vn 0.9999693 -4.373578E-07 0.007837373
vn 0.9999693 -4.373578E-07 0.007837373
vn 0.9999693 -4.373578E-07 0.007837373
vn -0.9977852 4.489352E-07 0.06651882
vn -0.9977852 4.489352E-07 0.06651881
vn -0.9977852 4.489352E-07 0.06651882
vn -0.9977852 4.489352E-07 0.06651882
vn 0.9979234 -4.486409E-07 -0.06441317
vn 0.9979234 -4.486409E-07 -0.06441317
vn 0.9979234 -4.486409E-07 -0.06441317
vn 0.9979234 -4.486409E-07 -0.06441317
vn -0.9977852 4.489354E-07 0.06652024
vn -0.9977852 4.489354E-07 0.06652024
vn -0.9977852 4.489354E-07 0.06652024
vn -0.9977852 4.489354E-07 0.06652024
vn 0.9931241 -4.554121E-07 -0.1170663
vn 0.9931241 -4.554121E-07 -0.1170663
vn 0.9931241 -4.554121E-07 -0.1170663
vn 0.9931241 -4.554121E-07 -0.1170663
vn -0.9961424 4.51794E-07 0.08775048
vn -0.9961424 4.51794E-07 0.08775047
vn -0.9961424 4.51794E-07 0.08775048
vn -0.9961424 4.51794E-07 0.08775048
vn 0.9983604 -4.476236E-07 -0.05724197
vn 0.9983604 -4.476236E-07 -0.05724197
vn 0.9983604 -4.476236E-07 -0.05724197
vn 0.9983604 -4.476236E-07 -0.05724197
vn -0.998131 4.481752E-07 0.06111117
vn -0.998131 4.481752E-07 0.06111117
vn -0.998131 4.481752E-07 0.06111117
vn -0.998131 4.481752E-07 0.06111117
vn 0.9945074 -4.539285E-07 -0.1046662
vn 0.9945074 -4.539285E-07 -0.1046662
vn 0.9945074 -4.539285E-07 -0.1046662
vn 0.9945074 -4.539285E-07 -0.1046662
vn -0.8507982 4.618303E-07 0.5254923
vn -0.8507984 4.618304E-07 0.5254924
vn -0.8507982 4.618303E-07 0.5254923
vn -0.8507982 4.618303E-07 0.5254923
vn 0.8150742 -4.552393E-07 -0.5793566
vn 0.8150742 -4.552393E-07 -0.5793565
vn 0.8150742 -4.552393E-07 -0.5793566
vn 0.8150742 -4.552393E-07 -0.5793566
vn -0.4667583 3.538596E-07 0.8843849
vn -0.4667583 3.538596E-07 0.8843849
vn -0.4667583 3.538596E-07 0.8843849
vn -0.4667583 3.538596E-07 0.8843849
vn 0.3966526 -3.287666E-07 -0.9179689
vn 0.3966526 -3.287666E-07 -0.9179689
vn 0.3966526 -3.287666E-07 -0.9179689
vn 0.3966526 -3.287666E-07 -0.9179689
vn -0.1414212 2.289335E-07 0.9899495
vn -0.1414212 2.289335E-07 0.9899495
vn -0.1414212 2.289335E-07 0.9899495
vn -0.1414212 2.289335E-07 0.9899495
vn 0.1891403 -2.485189E-07 -0.9819501
vn 0.1891403 -2.48519E-07 -0.9819501
vn 0.1891403 -2.485189E-07 -0.9819501
vn 0.1891403 -2.485189E-07 -0.9819501
vn -9.65394E-08 1.685875E-07 1
vn -9.65394E-08 1.685875E-07 1
vn -9.65394E-08 1.685875E-07 1
vn -9.65394E-08 1.685875E-07 1
vn -0.0003226333 -1.68446E-07 -0.9999999
vn -0.0003226333 -1.68446E-07 -0.9999999
vn -0.0003226333 -1.68446E-07 -0.9999999
vn -0.0003226333 -1.68446E-07 -0.9999999
vn -0.1385926 -1.06161E-07 -0.9903494
vn -0.1385926 -1.06161E-07 -0.9903494
vn -0.1385926 -1.06161E-07 -0.9903494
vn -0.1385926 -1.06161E-07 -0.9903494
vn 0.1135463 1.176852E-07 0.9935327
vn 0.1135463 1.176852E-07 0.9935327
vn 0.1135463 1.176852E-07 0.9935327
vn 0.1135463 1.176852E-07 0.9935327
vn -0.3109024 -2.384205E-08 -0.9504418
vn -0.3109024 -2.384203E-08 -0.9504418
vn -0.3109024 -2.384205E-08 -0.9504418
vn -0.3109024 -2.384205E-08 -0.9504418
vn 0.3095858 2.449202E-08 0.9508715
vn 0.3095858 2.449202E-08 0.9508715
vn 0.3095858 2.449202E-08 0.9508715
vn 0.3095858 2.449202E-08 0.9508715
vn -0.8354073 2.738261E-07 -0.5496312
vn -0.8354073 2.738261E-07 -0.5496312
vn -0.8354073 2.738261E-07 -0.5496312
vn -0.8354073 2.738261E-07 -0.5496312
vn 0.9021344 -3.230217E-07 0.4314551
vn 0.9021344 -3.230217E-07 0.4314551
vn 0.9021344 -3.230217E-07 0.4314551
vn 0.9021344 -3.230217E-07 0.4314551
vn -0.9584758 3.723995E-07 -0.2851737
vn -0.9584758 3.723995E-07 -0.2851737
vn -0.9584758 3.723995E-07 -0.2851737
vn -0.9584758 3.723995E-07 -0.2851737
vn 0.98909 -4.164408E-07 0.1473122
vn 0.98909 -4.090715E-07 0.1473122
vn 0.98909 -4.238101E-07 0.1473122
vn 0.98909 -4.164408E-07 0.1473122
vn 0.9992009 -4.492434E-07 0.03996717
vn 0.9992009 -4.519935E-07 0.03996717
vn 0.9992009 -4.464933E-07 0.03996717
vn 0.9992009 -4.492434E-07 0.03996717
vn -0.9999604 4.401756E-07 0.008899707
vn -0.9999604 4.401756E-07 0.008899707
vn -0.9999604 4.401756E-07 0.008899707
vn -0.9999604 4.401756E-07 0.008899707
vn -0.9998764 4.412894E-07 0.0157251
vn -0.9998764 4.412894E-07 0.0157251
vn -0.9998764 4.412894E-07 0.0157251
vn -0.9998764 4.412894E-07 0.0157251
vn -0.02154947 -1.439441E-07 -0.9997678
vn -0.02154946 -1.436912E-07 -0.9997677
vn -0.02154947 -1.441971E-07 -0.9997678
vn -0.02154947 -1.439441E-07 -0.9997678
vn 0.9999111 -4.503431E-07 0.01333229
vn 0.9999111 -4.500085E-07 0.01333229
vn 0.9999111 -4.506777E-07 0.01333229
vn 0.9999111 -4.503431E-07 0.01333229

vt 0 0
vt -0.0584221 4.381467
vt -0.1752599 7.302444
vt -0.5842005 10.04816
vt -1.86943 12.73546
vt -4.381472 13.55333
vt -8.470842 14.02069
vt -12.03443 14.02069
vt -15.71487 13.49491
vt -17.81797 12.38494
vt -19.04478 10.39867
vt -19.22004 7.536113
vt -19.49031 4.467959
vt -19.60954 2.679555
vt -19.76898 0.2879743
vt -19.21065 0.3394348
vt -19.21865 1.360266
vt -19.11314 2.994876
vt -18.87794 4.990227
vt -18.7319 7.537271
vt -18.43697 10.33962
vt -17.16832 12.12444
vt -15.39467 12.89083
vt -12.00066 13.54457
vt -8.419144 13.54342
vt -4.679099 13.02003
vt -2.598842 12.33955
vt -1.581429 10.79314
vt -0.5099309 7.191813
vt -0.5338593 4.503114
vt -0.6044731 0.01302883
vt 0.0584221 4.381467
vt -9.071979E-10 -7.251115E-10
vt 0.6044731 0.01302883
vt 0.5338593 4.503114
vt 0.5099309 7.191813
vt 0.1752599 7.302444
vt 0.5842005 10.04816
vt 1.581429 10.79314
vt 1.86943 12.73546
vt 2.598842 12.33955
vt 4.381472 13.55333
vt 4.679099 13.02003
vt 8.470842 14.02069
vt 8.419144 13.54342
vt 12.00066 13.54457
vt 12.03443 14.02069
vt 15.39467 12.89083
vt 15.71487 13.49491
vt 17.16832 12.12444
vt 17.81797 12.38494
vt 18.43697 10.33962
vt 19.04478 10.39867
vt 18.7319 7.537271
vt 19.22004 7.536113
vt 18.87794 4.990227
vt 19.49031 4.467959
vt 19.11314 2.994876
vt 19.60954 2.679555
vt 19.21865 1.360266
vt 19.76898 0.2879742
vt 19.21065 0.3394347
vt 19.65911 2.723036E-06
vt 19.09842 -7.518825E-07
vt 19.65911 1.000003
vt 19.09842 0.9999992
vt -0.4899938 -7.518825E-07
vt -1.510856 -9.847124E-07
vt -0.4899938 0.9999992
vt -1.510856 0.999999
vt 1.369226 2.38979E-06
vt -1.027664 2.723036E-06
vt 1.369226 1.000002
vt -1.027664 1.000003
vt -0.1195154 -9.847124E-07
vt -1.757527 -1.133697E-06
vt -0.1195154 0.999999
vt -1.757527 0.9999989
vt 3.161571 2.140593E-06
vt 1.369197 2.38979E-06
vt 3.161571 1.000002
vt 1.369197 1.000002
vt -0.7367872 -1.133697E-06
vt -2.745953 4.425206E-07
vt -0.7367872 0.9999989
vt -2.745953 1
vt 5.820483 1.741908E-06
vt 2.740448 2.140593E-06
vt 5.820483 1.000002
vt 2.740448 1.000002
vt -3.901443 4.425206E-07
vt -6.45267 1.717966E-07
vt -3.901443 1
vt -6.45267 1
vt 9.215395 1.336202E-06
vt 6.347477 1.741908E-06
vt 9.215395 1.000001
vt 6.347477 1.000002
vt -5.535284 1.717966E-07
vt -8.353106 -2.031912E-07
vt -5.535284 1
vt -8.353106 0.9999998
vt 1.173885 1.539536E-06
vt -1.160705 1.336202E-06
vt 1.173885 1.000002
vt -1.160705 1.000001
vt 2.254018 -2.031912E-07
vt 0.06425253 -3.889841E-08
vt 2.254018 0.9999998
vt 0.06425253 0.9999999
vt -7.599122 2.275025E-06
vt -9.977165 1.539536E-06
vt -7.599122 1.000002
vt -9.977165 1.000002
vt 10.95078 -3.889841E-08
vt 9.018641 -1.297366E-06
vt 10.95078 0.9999999
vt 9.018641 0.9999987
vt -9.930655 -1.37336E-08
vt -13.64845 2.275025E-06
vt -9.930655 1
vt -13.64845 1.000002
vt 12.67862 -1.297366E-06
vt 9.222219 1.139986E-07
vt 12.67862 0.9999987
vt 9.222219 1
vt -8.470835 1.549588E-06
vt -12.03443 -1.37336E-08
vt -8.470835 1.000002
vt -12.03443 1
vt 12.00502 1.139986E-07
vt 8.423507 -1.64023E-07
vt 12.00502 1
vt 8.423507 0.9999998
vt 10.21491 -1.64023E-07
vt 6.438417 -3.992211E-07
vt 10.21491 0.9999998
vt 6.438417 0.9999996
vt -5.892061 -3.923424E-07
vt -10.00805 1.549588E-06
vt -5.892061 0.9999996
vt -10.00805 1.000002
vt 8.495165 -3.992211E-07
vt 6.306439 -1.337239E-06
vt 8.495165 0.9999996
vt 6.306439 0.9999987
vt -5.720302 8.475547E-07
vt -8.362132 -3.923424E-07
vt -5.720302 1.000001
vt -8.362132 0.9999996
vt 11.73695 -1.337239E-06
vt 9.885871 -3.828357E-07
vt 11.73695 0.9999987
vt 9.885871 0.9999996
vt -9.316848 1.86442E-06
vt -12.29567 8.475547E-07
vt -9.316848 1.000002
vt -12.29567 1.000001
vt 10.79595 -3.828357E-07
vt 7.038598 1.924046E-07
vt 10.79595 0.9999996
vt 7.038598 1
vt -7.248592 2.520012E-06
vt -10.0246 1.87772E-06
vt -7.248592 1.000003
vt -10.0246 1.000002
vt -4.380301 3.052146E-06
vt -7.303615 2.508451E-06
vt -4.380301 1.000003
vt -7.303615 1.000003
vt 7.18699 1.924046E-07
vt 4.498185 -1.237983E-06
vt 7.18699 1
vt 4.498185 0.9999987
vt 4.494162 -1.237983E-06
vt 0.003522087 -4.405722E-07
vt 4.494162 0.9999987
vt 0.003522102 0.9999996
vt 0.6046135 -4.405722E-07
vt 0 0
vt 0.6046135 0.9999996
vt -1.375037E-08 1
vt 0 0
vt -4.381857 3.050408E-06
vt -1.469937E-08 1
vt -4.381857 1.000003

g New Game Object_0
usemtl Default_Prototype
f 65/65/65 66/66/66 64/64/64 63/63/63
f 69/69/69 70/70/70 68/68/68 67/67/67
f 73/73/73 74/74/74 72/72/72 71/71/71
f 77/77/77 78/78/78 76/76/76 75/75/75
f 81/81/81 82/82/82 80/80/80 79/79/79
f 85/85/85 86/86/86 84/84/84 83/83/83
f 89/89/89 90/90/90 88/88/88 87/87/87
f 93/93/93 94/94/94 92/92/92 91/91/91
f 97/97/97 98/98/98 96/96/96 95/95/95
f 101/101/101 102/102/102 100/100/100 99/99/99
f 105/105/105 106/106/106 104/104/104 103/103/103
f 109/109/109 110/110/110 108/108/108 107/107/107
f 113/113/113 114/114/114 112/112/112 111/111/111
f 117/117/117 118/118/118 116/116/116 115/115/115
f 121/121/121 122/122/122 120/120/120 119/119/119
f 125/125/125 126/126/126 124/124/124 123/123/123
f 129/129/129 130/130/130 128/128/128 127/127/127
f 133/133/133 134/134/134 132/132/132 131/131/131
f 137/137/137 138/138/138 136/136/136 135/135/135
f 141/141/141 142/142/142 140/140/140 139/139/139
f 145/145/145 146/146/146 144/144/144 143/143/143
f 149/149/149 150/150/150 148/148/148 147/147/147
f 153/153/153 154/154/154 152/152/152 151/151/151
f 157/157/157 158/158/158 156/156/156 155/155/155
f 161/161/161 162/162/162 160/160/160 159/159/159
f 165/165/165 166/166/166 164/164/164 163/163/163
f 169/169/169 170/170/170 168/168/168 167/167/167
f 173/173/173 174/174/174 172/172/172 171/171/171
f 177/177/177 178/178/178 176/176/176 175/175/175
f 181/181/181 182/182/182 180/180/180 179/179/179
f 185/185/185 186/186/186 184/184/184 183/183/183

g New Game Object_1
usemtl Default_Prototype
f 31/31/31 1/1/1 2/2/2
f 31/31/31 2/2/2 30/30/30
f 30/30/30 2/2/2 29/29/29
f 29/29/29 2/2/2 3/3/3
f 4/4/4 29/29/29 3/3/3
f 4/4/4 28/28/28 29/29/29
f 5/5/5 28/28/28 4/4/4
f 27/27/27 28/28/28 5/5/5
f 6/6/6 27/27/27 5/5/5
f 26/26/26 27/27/27 6/6/6
f 7/7/7 26/26/26 6/6/6
f 7/7/7 25/25/25 26/26/26
f 24/24/24 25/25/25 7/7/7
f 8/8/8 24/24/24 7/7/7
f 23/23/23 24/24/24 8/8/8
f 9/9/9 23/23/23 8/8/8
f 22/22/22 23/23/23 9/9/9
f 10/10/10 22/22/22 9/9/9
f 21/21/21 22/22/22 10/10/10
f 11/11/11 21/21/21 10/10/10
f 11/11/11 20/20/20 21/21/21
f 12/12/12 20/20/20 11/11/11
f 12/12/12 19/19/19 20/20/20
f 13/13/13 19/19/19 12/12/12
f 13/13/13 18/18/18 19/19/19
f 14/14/14 18/18/18 13/13/13
f 14/14/14 17/17/17 18/18/18
f 15/15/15 17/17/17 14/14/14
f 15/15/15 16/16/16 17/17/17
f 60/60/60 62/62/62 61/61/61
f 59/59/59 60/60/60 61/61/61
f 58/58/58 60/60/60 59/59/59
f 57/57/57 58/58/58 59/59/59
f 56/56/56 58/58/58 57/57/57
f 55/55/55 56/56/56 57/57/57
f 54/54/54 56/56/56 55/55/55
f 53/53/53 54/54/54 55/55/55
f 52/52/52 54/54/54 53/53/53
f 51/51/51 52/52/52 53/53/53
f 51/51/51 50/50/50 52/52/52
f 49/49/49 50/50/50 51/51/51
f 49/49/49 48/48/48 50/50/50
f 47/47/47 48/48/48 49/49/49
f 47/47/47 46/46/46 48/48/48
f 44/44/44 46/46/46 47/47/47
f 44/44/44 45/45/45 46/46/46
f 43/43/43 45/45/45 44/44/44
f 42/42/42 43/43/43 44/44/44
f 42/42/42 41/41/41 43/43/43
f 40/40/40 41/41/41 42/42/42
f 40/40/40 39/39/39 41/41/41
f 38/38/38 39/39/39 40/40/40
f 36/36/36 39/39/39 38/38/38
f 37/37/37 36/36/36 38/38/38
f 37/37/37 32/32/32 36/36/36
f 36/36/36 32/32/32 35/35/35
f 35/35/35 32/32/32 34/34/34
f 32/32/32 33/33/33 34/34/34

