# Exported from ProBuilder
# http://www.procore3d.com/probuilder
# 6/11/2018 5:12:53 PM

mtllib ./3.mtl
o 3

g 3
v 1.431231 -2.558747E-06 -17.53895
v -3.69546 -9.956231E-07 -18.09203
v -8.756944 -1.506176E-06 -17.55561
v -13.21722 -1.723924E-06 -15.82209
v -16.91418 -7.115694E-07 -13.33513
v -15.23578 -2.042399E-06 -11.54909
v -11.90459 -2.214019E-06 -13.66023
v -8.572977 -2.188037E-07 -14.80845
v -3.081848 -2.916308E-06 -15.81649
v 1.824069 -3.452872E-06 -14.11056
v 5.108105 -1.362688E-06 -10.5261
v 7.657896 -3.868055E-06 -12.26267
v 5.150965 -3.53818E-06 -15.04007
v 7.657896 1.80865 -12.26267
v 5.150965 1.80865 -15.04007
v 5.108105 1.808652 -10.5261
v 1.824069 1.80865 -14.11056
v 1.431232 1.808651 -17.53895
v -3.081848 1.80865 -15.81649
v -3.695459 1.808652 -18.09203
v -8.572976 1.808653 -14.80845
v -8.756944 1.808652 -17.55561
v -13.21722 1.808652 -15.82209
v -11.90459 1.808651 -13.66023
v -15.23578 1.808651 -11.54909
v -16.91418 1.808653 -13.33513
v -15.23578 -2.042399E-06 -11.54909
v -16.91418 -7.115694E-07 -13.33513
v -15.23578 1.808651 -11.54909
v -16.91418 1.808653 -13.33513
v -16.91418 -7.115694E-07 -13.33513
v -13.21722 -1.723924E-06 -15.82209
v -16.91418 1.808653 -13.33513
v -13.21722 1.808652 -15.82209
v -11.90459 -2.214019E-06 -13.66023
v -15.23578 -2.042399E-06 -11.54909
v -11.90459 1.808651 -13.66023
v -15.23578 1.808651 -11.54909
v -8.572977 -2.188037E-07 -14.80845
v -11.90459 -2.214019E-06 -13.66023
v -8.572976 1.808653 -14.80845
v -11.90459 1.808651 -13.66023
v -13.21722 -1.723924E-06 -15.82209
v -8.756944 -1.506176E-06 -17.55561
v -13.21722 1.808652 -15.82209
v -8.756944 1.808652 -17.55561
v -8.756944 -1.506176E-06 -17.55561
v -3.69546 -9.956231E-07 -18.09203
v -8.756944 1.808652 -17.55561
v -3.695459 1.808652 -18.09203
v -3.081848 -2.916308E-06 -15.81649
v -8.572977 -2.188037E-07 -14.80845
v -3.081848 1.80865 -15.81649
v -8.572976 1.808653 -14.80845
v -3.69546 -9.956231E-07 -18.09203
v 1.431231 -2.558747E-06 -17.53895
v -3.695459 1.808652 -18.09203
v 1.431232 1.808651 -17.53895
v 1.824069 -3.452872E-06 -14.11056
v -3.081848 -2.916308E-06 -15.81649
v 1.824069 1.80865 -14.11056
v -3.081848 1.80865 -15.81649
v 1.431231 -2.558747E-06 -17.53895
v 5.150965 -3.53818E-06 -15.04007
v 1.431232 1.808651 -17.53895
v 5.150965 1.80865 -15.04007
v 5.108105 -1.362688E-06 -10.5261
v 1.824069 -3.452872E-06 -14.11056
v 5.108105 1.808652 -10.5261
v 1.824069 1.80865 -14.11056
v 5.150965 -3.53818E-06 -15.04007
v 7.657896 -3.868055E-06 -12.26267
v 5.150965 1.80865 -15.04007
v 7.657896 1.80865 -12.26267
v 7.657896 -3.868055E-06 -12.26267
v 5.108105 -1.362688E-06 -10.5261
v 7.657896 1.80865 -12.26267
v 5.108105 1.808652 -10.5261

vn -1.001981E-07 -1 -4.077895E-07
vn -2.204757E-07 -0.9999999 -2.954191E-07
vn 1.852471E-07 -1 4.562141E-07
vn 1.356295E-09 -0.9999999 -7.561047E-08
vn -4.748813E-07 -0.9999999 -2.98865E-07
vn -3.143894E-07 -1 -2.230488E-07
vn 1.255176E-07 -1 -3.029109E-07
vn 1.238163E-08 -1 -2.105884E-08
vn -2.681299E-07 -1 -5.408973E-07
vn 4.645016E-09 -1 2.729992E-09
vn -2.231557E-07 -1 4.79827E-07
vn -6.586003E-07 -0.9999999 4.756925E-07
vn -1.837883E-07 -0.9999999 2.548842E-07
vn 6.514771E-07 0.9999999 -4.86997E-07
vn 1.928968E-07 0.9999999 -2.64449E-07
vn 2.288122E-07 1 -4.910102E-07
vn 2.25188E-09 1 -9.380659E-09
vn 9.970947E-08 1 4.044968E-07
vn 2.656183E-07 1 5.377323E-07
vn 2.249489E-07 0.9999999 2.921007E-07
vn -1.345525E-08 1 1.710957E-08
vn -1.869804E-07 1 -4.588858E-07
vn -1.167036E-08 0.9999999 6.71151E-08
vn -1.337669E-07 1 2.935859E-07
vn 3.083457E-07 1 2.093877E-07
vn 4.662688E-07 1 2.839903E-07
vn -0.7287252 1.02195E-07 0.6848063
vn -0.7287252 1.108434E-07 0.6848063
vn -0.7287253 9.354655E-08 0.6848063
vn -0.7287252 1.02195E-07 0.6848063
vn -0.5581629 1.761305E-07 -0.8297313
vn -0.5581629 2.308185E-07 -0.8297313
vn -0.5581629 1.214425E-07 -0.8297313
vn -0.5581629 1.761305E-07 -0.8297313
vn 0.5353035 -1.070896E-07 0.8446599
vn 0.5353035 -9.591214E-08 0.8446599
vn 0.5353035 -1.182671E-07 0.8446599
vn 0.5353035 -1.070896E-07 0.8446599
vn 0.3258354 -7.534398E-08 0.9454265
vn 0.3258353 -6.284274E-08 0.9454265
vn 0.3258354 -8.784519E-08 0.9454265
vn 0.3258354 -7.534398E-08 0.9454265
vn -0.3622582 9.962804E-08 -0.9320778
vn -0.3622581 1.059677E-07 -0.9320778
vn -0.3622581 9.328843E-08 -0.9320778
vn -0.3622582 9.962804E-08 -0.9320778
vn -0.1053911 -1.021912E-08 -0.9944309
vn -0.1053911 -7.417021E-08 -0.9944309
vn -0.1053911 5.373199E-08 -0.994431
vn -0.1053911 -1.021912E-08 -0.9944309
vn 0.1805601 -8.3183E-08 0.983564
vn 0.1805601 -1.00787E-07 0.983564
vn 0.1805601 -6.557902E-08 0.983564
vn 0.1805601 -8.3183E-08 0.983564
vn 0.1072593 -4.483139E-08 -0.994231
vn 0.1072593 2.231827E-08 -0.994231
vn 0.1072593 -1.119811E-07 -0.994231
vn 0.1072593 -4.483139E-08 -0.994231
vn -0.3284395 -1.436053E-08 0.944525
vn -0.3284395 -4.208625E-09 0.944525
vn -0.3284395 -2.451243E-08 0.944525
vn -0.3284395 -1.436053E-08 0.944525
vn 0.557641 5.321244E-08 -0.8300823
vn 0.5576409 1.66757E-07 -0.8300823
vn 0.557641 -6.033213E-08 -0.8300824
vn 0.557641 5.321244E-08 -0.8300823
vn -0.7373306 7.462286E-08 0.6755322
vn -0.7373306 1.147035E-07 0.6755322
vn -0.7373306 3.454221E-08 0.6755322
vn -0.7373306 7.462286E-08 0.6755322
vn 0.7423277 -2.156371E-08 -0.670037
vn 0.7423277 -7.98074E-09 -0.670037
vn 0.7423277 -3.514667E-08 -0.670037
vn 0.7423277 -2.156371E-08 -0.670037
vn 0.5629113 -5.40125E-08 0.8265173
vn 0.5629113 -6.01306E-08 0.8265173
vn 0.5629113 -4.789437E-08 0.8265173
vn 0.5629113 -5.40125E-08 0.8265173

vt -4.088811 -3.568954
vt -9.215502 -4.122031
vt -14.27699 -3.585609
vt -18.73726 -1.852095
vt -22.43423 0.634865
vt -20.75582 2.420911
vt -17.42464 0.3097716
vt -14.09302 -0.8384489
vt -8.601891 -1.846495
vt -3.695973 -0.1405607
vt -0.4119383 3.443903
vt 2.137853 1.707332
vt -0.369078 -1.070074
vt -2.137853 1.707332
vt 0.369078 -1.070074
vt 0.4119383 3.443903
vt 3.695973 -0.1405607
vt 4.088811 -3.568954
vt 8.601891 -1.846495
vt 9.215502 -4.122031
vt 14.09302 -0.8384489
vt 14.27699 -3.585609
vt 18.73726 -1.852095
vt 17.42464 0.3097716
vt 20.75582 2.420911
vt 22.43423 0.634865
vt -12.44954 -2.716164E-06
vt -14.90045 -1.959887E-06
vt -12.44954 1.808651
vt -14.90045 1.808651
vt 18.96874 8.671455E-07
vt 14.51312 3.783283E-08
vt 18.96874 1.808654
vt 14.51312 1.808653
vt -14.88371 -1.76508E-07
vt -18.82753 -1.91695E-07
vt -14.88371 1.808653
vt -18.82753 1.808653
vt -13.05072 1.829577E-06
vt -16.57465 -5.148526E-07
vt -13.05072 1.808655
vt -16.57465 1.808653
vt 16.79365 -2.280571E-07
vt 12.00835 4.24113E-07
vt 16.79365 1.808653
vt 12.00835 1.808654
vt 13.81959 4.266747E-08
vt 8.729755 1.287407E-06
vt 13.81959 1.808654
vt 8.729755 1.808655
vt -8.127107 -3.774873E-07
vt -13.71 1.595343E-06
vt -8.127107 1.808653
vt -13.71 1.808655
vt 9.604465 1.437901E-06
vt 4.448027 8.032629E-07
vt 9.604465 1.808655
vt 4.448027 1.808654
vt -3.537105 -3.518242E-07
vt -8.731163 -9.021351E-07
vt -3.537105 1.808653
vt -8.731163 1.808653
vt 5.384245 6.27919E-08
vt 0.9030824 1.106592E-07
vt 5.384245 1.808654
vt 0.9030827 1.808654
vt 2.261018 2.891054E-06
vt -2.600388 -3.384615E-07
vt 2.261018 1.808656
vt -2.600388 1.808653
vt 1.041642 4.802024E-08
vt -2.699841 5.948121E-07
vt 1.041642 1.808653
vt -2.69984 1.808654
vt 0.8058962 1.039049E-07
vt -2.279086 2.486622E-06
vt 0.8058962 1.808654
vt -2.279086 1.808656

g 3_0
usemtl Default_Prototype
f 29/29/29 30/30/30 28/28/28 27/27/27
f 33/33/33 34/34/34 32/32/32 31/31/31
f 37/37/37 38/38/38 36/36/36 35/35/35
f 41/41/41 42/42/42 40/40/40 39/39/39
f 45/45/45 46/46/46 44/44/44 43/43/43
f 49/49/49 50/50/50 48/48/48 47/47/47
f 53/53/53 54/54/54 52/52/52 51/51/51
f 57/57/57 58/58/58 56/56/56 55/55/55
f 61/61/61 62/62/62 60/60/60 59/59/59
f 65/65/65 66/66/66 64/64/64 63/63/63
f 69/69/69 70/70/70 68/68/68 67/67/67
f 73/73/73 74/74/74 72/72/72 71/71/71
f 77/77/77 78/78/78 76/76/76 75/75/75

g 3_1
usemtl Default_Prototype
f 11/11/11 13/13/13 12/12/12
f 10/10/10 13/13/13 11/11/11
f 1/1/1 13/13/13 10/10/10
f 9/9/9 1/1/1 10/10/10
f 2/2/2 1/1/1 9/9/9
f 8/8/8 2/2/2 9/9/9
f 3/3/3 2/2/2 8/8/8
f 4/4/4 3/3/3 8/8/8
f 4/4/4 8/8/8 7/7/7
f 4/4/4 7/7/7 6/6/6
f 4/4/4 6/6/6 5/5/5
f 26/26/26 25/25/25 23/23/23
f 25/25/25 24/24/24 23/23/23
f 24/24/24 21/21/21 23/23/23
f 21/21/21 22/22/22 23/23/23
f 21/21/21 20/20/20 22/22/22
f 19/19/19 20/20/20 21/21/21
f 19/19/19 18/18/18 20/20/20
f 17/17/17 18/18/18 19/19/19
f 17/17/17 15/15/15 18/18/18
f 16/16/16 15/15/15 17/17/17
f 14/14/14 15/15/15 16/16/16

