# Exported from ProBuilder
# http://www.procore3d.com/probuilder
# 6/11/2018 1:42:18 AM

mtllib ./New_Game_Object.mtl
o New Game Object

g New Game Object
v -1.255307 -5.722046E-06 8.970285
v -1.939814 -5.722046E-06 7.992626
v -1.012058 -5.722046E-06 6.707735
v 2.801107 -6.370678E-06 8.348242
v 5.37555 -6.749444E-06 8.292519
v 6.10799 -7.810331E-06 11.96995
v 4.807396 -7.470815E-06 10.85886
v 3.188153 -7.759719E-06 9.843429
v 0.9014511 -6.313046E-06 9.293207
v 6.10799 1.327291 11.96995
v 5.37555 1.327292 8.292519
v 4.807396 1.327291 10.85886
v 3.188153 1.327291 9.843429
v 2.801107 1.327292 8.348242
v 0.9014513 1.327292 9.293207
v -1.012058 1.327293 6.707735
v -1.255307 1.327293 8.970285
v -1.939813 1.327293 7.992627
v -1.939814 -5.722046E-06 7.992626
v -1.012058 -5.722046E-06 6.707735
v -1.939813 1.327293 7.992627
v -1.012058 1.327293 6.707735
v -1.255307 -5.722046E-06 8.970285
v -1.939814 -5.722046E-06 7.992626
v -1.255307 1.327293 8.970285
v -1.939813 1.327293 7.992627
v 0.9014511 -6.313046E-06 9.293207
v -1.255307 -5.722046E-06 8.970285
v 0.9014513 1.327292 9.293207
v -1.255307 1.327293 8.970285
v -1.012058 -5.722046E-06 6.707735
v 2.801107 -6.370678E-06 8.348242
v -1.012058 1.327293 6.707735
v 2.801107 1.327292 8.348242
v 3.188153 -7.759719E-06 9.843429
v 0.9014511 -6.313046E-06 9.293207
v 3.188153 1.327291 9.843429
v 0.9014513 1.327292 9.293207
v 2.801107 -6.370678E-06 8.348242
v 5.37555 -6.749444E-06 8.292519
v 2.801107 1.327292 8.348242
v 5.37555 1.327292 8.292519
v 4.807396 -7.470815E-06 10.85886
v 3.188153 -7.759719E-06 9.843429
v 4.807396 1.327291 10.85886
v 3.188153 1.327291 9.843429
v 5.37555 -6.749444E-06 8.292519
v 6.10799 -7.810331E-06 11.96995
v 5.37555 1.327292 8.292519
v 6.10799 1.327291 11.96995
v 6.10799 -7.810331E-06 11.96995
v 4.807396 -7.470815E-06 10.85886
v 6.10799 1.327291 11.96995
v 4.807396 1.327291 10.85886

vn -1.982498E-07 -0.9999999 -2.131396E-08
vn 1.325552E-14 -1 1.878567E-15
vn -1.51854E-07 -1 -8.586814E-08
vn -1.99322E-07 -0.9999999 -5.115897E-07
vn 6.048167E-08 -0.9999999 -4.425952E-07
vn -1.758705E-08 -1 -2.849833E-07
vn 1.613658E-07 -1 -2.453656E-07
vn -4.814542E-08 -1 -5.969609E-07
vn -2.313483E-07 -1 -2.534628E-07
vn -1.427307E-08 1 2.687124E-07
vn -6.315033E-08 0.9999999 4.33629E-07
vn -1.705883E-07 1 2.341063E-07
vn 5.255478E-08 1 5.935921E-07
vn 1.973146E-07 0.9999999 5.199758E-07
vn 2.347863E-07 1 2.608051E-07
vn 1.66208E-07 1 9.324423E-08
vn 2.318803E-07 0.9999999 1.793727E-08
vn 5.668435E-08 0.9999999 -8.981756E-10
vn -0.8107458 2.788297E-07 -0.5853985
vn -0.8107458 2.874489E-07 -0.5853984
vn -0.8107458 2.702106E-07 -0.5853985
vn -0.8107458 2.788297E-07 -0.5853985
vn -0.8191747 -7.801304E-09 0.5735439
vn -0.8191747 -8.588636E-10 0.5735439
vn -0.8191747 -1.474374E-08 0.5735439
vn -0.8191747 -7.801304E-09 0.5735439
vn -0.148075 -2.384958E-07 0.9889761
vn -0.148075 -2.455638E-07 0.9889761
vn -0.148075 -2.314278E-07 0.9889761
vn -0.148075 -2.384958E-07 0.9889761
vn 0.3951997 1.317285E-07 -0.9185952
vn 0.3951997 9.047736E-08 -0.9185952
vn 0.3951997 1.729796E-07 -0.9185953
vn 0.3951997 1.317285E-07 -0.9185952
vn -0.233941 -1.63982E-07 0.9722509
vn -0.233941 -2.021685E-07 0.9722509
vn -0.2339409 -1.257954E-07 0.9722509
vn -0.233941 -1.63982E-07 0.9722509
vn -0.02163969 2.605677E-07 -0.9997659
vn -0.02163969 2.592695E-07 -0.9997659
vn -0.02163969 2.618659E-07 -0.9997659
vn -0.02163969 2.605677E-07 -0.9997659
vn -0.5312781 -5.627063E-08 0.8471974
vn -0.5312781 -5.627065E-08 0.8471975
vn -0.5312781 -5.627063E-08 0.8471974
vn -0.5312781 -5.627063E-08 0.8471974
vn 0.9807365 -1.180793E-07 -0.1953352
vn 0.9807365 -1.268512E-07 -0.1953352
vn 0.9807365 -1.093075E-07 -0.1953352
vn 0.9807365 -1.180793E-07 -0.1953352
vn -0.6495418 -2.235759E-08 0.760326
vn -0.6495418 -2.235759E-08 0.760326
vn -0.6495418 -2.235759E-08 0.760326
vn -0.6495418 -2.235759E-08 0.760326

vt -0.8315214 1.461763
vt -1.516028 0.4841034
vt -0.5882725 -0.800788
vt 3.224893 0.8397198
vt 5.799335 0.7839971
vt 6.531775 4.461425
vt 5.231182 3.350336
vt 3.611938 2.334907
vt 1.325237 1.784685
vt -6.531775 4.461425
vt -5.799335 0.7839971
vt -5.231182 3.350336
vt -3.611938 2.334907
vt -3.224893 0.8397199
vt -1.325237 1.784685
vt 0.5882725 -0.800788
vt 0.8315214 1.461763
vt 1.516028 0.4841034
vt 1.279965 2.741666E-07
vt -0.3048615 2.087006E-07
vt 1.279965 1.327299
vt -0.3048615 1.327299
vt 0.7205254 6.660748E-07
vt -0.472943 3.897335E-07
vt 0.7205255 1.327299
vt -0.472943 1.327299
vt 1.574895 5.419644E-07
vt -0.6059041 7.27144E-07
vt 1.574895 1.327299
vt -0.605904 1.327299
vt 0.8568556 2.044846E-07
vt -3.294228 4.536644E-07
vt 0.8568555 1.327299
vt -3.294228 1.327299
vt 4.05794 -5.787405E-07
vt 1.705974 4.026204E-07
vt 4.05794 1.327298
vt 1.705974 1.327299
vt -3.205966 5.768215E-07
vt -5.781013 6.080917E-07
vt -3.205966 1.327299
vt -5.781013 1.327299
vt 6.211804 1.451594E-07
vt 4.300509 -5.787405E-07
vt 6.211804 1.327299
vt 4.300509 1.327298
vt -1.901708 4.293474E-07
vt -5.651368 1.077578E-07
vt -1.901708 1.327299
vt -5.651368 1.327299
vt 7.864161 2.048532E-07
vt 6.153586 1.451594E-07
vt 7.864161 1.327299
vt 6.153586 1.327299

g New Game Object_0
usemtl Default_Prototype
f 21/21/21 22/22/22 20/20/20 19/19/19
f 25/25/25 26/26/26 24/24/24 23/23/23
f 29/29/29 30/30/30 28/28/28 27/27/27
f 33/33/33 34/34/34 32/32/32 31/31/31
f 37/37/37 38/38/38 36/36/36 35/35/35
f 41/41/41 42/42/42 40/40/40 39/39/39
f 45/45/45 46/46/46 44/44/44 43/43/43
f 49/49/49 50/50/50 48/48/48 47/47/47
f 53/53/53 54/54/54 52/52/52 51/51/51

g New Game Object_1
usemtl Default_Prototype
f 7/7/7 5/5/5 6/6/6
f 8/8/8 5/5/5 7/7/7
f 4/4/4 5/5/5 8/8/8
f 9/9/9 4/4/4 8/8/8
f 3/3/3 4/4/4 9/9/9
f 3/3/3 9/9/9 1/1/1
f 2/2/2 3/3/3 1/1/1
f 17/17/17 16/16/16 18/18/18
f 17/17/17 15/15/15 16/16/16
f 15/15/15 14/14/14 16/16/16
f 13/13/13 14/14/14 15/15/15
f 13/13/13 11/11/11 14/14/14
f 12/12/12 11/11/11 13/13/13
f 10/10/10 11/11/11 12/12/12

